<?xml version="1.0" encoding="UTF-8" standalone="no"?>
<!-- Created with Inkscape (http://www.inkscape.org/) -->

<svg
   xmlns:dc="http://purl.org/dc/elements/1.1/"
   xmlns:cc="http://creativecommons.org/ns#"
   xmlns:rdf="http://www.w3.org/1999/02/22-rdf-syntax-ns#"
   xmlns:svg="http://www.w3.org/2000/svg"
   xmlns="http://www.w3.org/2000/svg"
   xmlns:sodipodi="http://sodipodi.sourceforge.net/DTD/sodipodi-0.dtd"
   xmlns:inkscape="http://www.inkscape.org/namespaces/inkscape"
   version="1.1"
   id="svg112995"
   xml:space="preserve"
   width="800"
   height="800"
   viewBox="0 0 800 800"
   sodipodi:docname="squirrel-publicdomainvectors.org.svg"
   inkscape:version="0.92.4 (5da689c313, 2019-01-14)"><metadata
     id="metadata113001"><rdf:RDF><cc:Work
         rdf:about=""><dc:format>image/svg+xml</dc:format><dc:type
           rdf:resource="http://purl.org/dc/dcmitype/StillImage" /><dc:title></dc:title></cc:Work></rdf:RDF></metadata><defs
     id="defs112999"><clipPath
       clipPathUnits="userSpaceOnUse"
       id="clipPath113011"><path
         d="M 0,600 H 600 V 0 H 0 Z"
         id="path113009"
         inkscape:connector-curvature="0" /></clipPath></defs><sodipodi:namedview
     pagecolor="#ffffff"
     bordercolor="#666666"
     borderopacity="1"
     objecttolerance="10"
     gridtolerance="10"
     guidetolerance="10"
     inkscape:pageopacity="0"
     inkscape:pageshadow="2"
     inkscape:window-width="797"
     inkscape:window-height="480"
     id="namedview112997"
     showgrid="false"
     inkscape:zoom="0.295"
     inkscape:cx="400"
     inkscape:cy="400"
     inkscape:window-x="0"
     inkscape:window-y="0"
     inkscape:window-maximized="0"
     inkscape:current-layer="g113003" /><g
     id="g113003"
     inkscape:groupmode="layer"
     inkscape:label="squirrel-publicdomainvectors.org"
     transform="matrix(1.3333333,0,0,-1.3333333,0,800)"><g
       id="g113005"><g
         id="g113007"
         clip-path="url(#clipPath113011)"><path
           d="m 307.176,80.547 c 109.601,0 198.995,25.63 198.995,57.056 0,31.424 -89.394,57.054 -198.995,57.054 -109.604,0 -198.997,-25.63 -198.997,-57.054 0,-31.426 89.393,-57.056 198.997,-57.056"
           style="fill:#e6e6e6;fill-opacity:1;fill-rule:evenodd;stroke:none"
           id="path113013"
           inkscape:connector-curvature="0" /><path
           d="m 265.197,127.341 c -105.303,20.7 -154.937,113.563 -151.682,229.61 2.011,71.749 51.072,142.111 52.879,208.737 2.023,74.564 169.646,-31.584 162.58,-147.974 -0.159,-2.594 32.83,20.731 41.984,43.605 -3.907,39.079 -4.465,73.677 8.349,90.453 22.344,-7.9 27.818,-22.228 30.614,-37.572 7.64,17.997 17.875,29.315 32.008,30.614 11.606,-35.154 22.07,-70.174 2.781,-101.585 20.185,-19.159 33.635,-36.971 30.615,-51.489 -0.927,-9.276 -1.854,-18.554 -2.783,-27.831 5.157,-14.969 -5.523,-23.625 -14.786,-25.57 3.77,-2.03 4.409,-3.538 6.264,-8.177 18.859,1.448 28.164,-8.058 22.438,-26.092 4.006,-12.289 1.103,-22.504 -4.176,-32.005 -6.029,5.102 -12.059,10.205 -18.089,15.307 -18.28,-30.204 -39.11,-51.708 -68.535,-43.833 -0.312,-33.839 -12.775,-61.959 -28.876,-88.368 9.279,4.871 21.156,12.36 31.485,10.611 12.201,-2.069 26.65,-9.642 24.581,-20.117 -23.502,-7.183 -42.481,-2.011 -71.026,-10.323 4.671,-5.329 6.234,-10.471 3.479,-15.34 -3.616,-8.174 -36.842,-5.496 -75.862,-2.182 -5.102,0.942 -13.14,4.927 -14.242,9.521"
           style="fill:#9c5a2e;fill-opacity:1;fill-rule:evenodd;stroke:none"
           id="path113015"
           inkscape:connector-curvature="0" /><path
           d="m 201.367,184.728 c -39.143,46.464 -73.987,154.981 -47.45,214.342 61.517,137.607 23.855,145.693 55.803,160.685 35.232,16.534 98.502,-76.046 96.47,-145.385 -8.752,-9.167 47.959,14.003 39.208,4.835 -35.717,-18.322 -71.434,-36.646 -107.152,-54.969 -14.379,-22.96 -28.759,-45.922 -43.139,-68.882 1.088,-19.226 -2.693,-38.8 -1.607,-58.025 0.998,-17.649 4.259,-33.909 7.867,-52.601"
           style="fill:#b36f42;fill-opacity:1;fill-rule:evenodd;stroke:none"
           id="path113017"
           inkscape:connector-curvature="0" /><path
           d="m 286.446,401.334 c 9.789,20.416 -2.484,72.414 -13.102,96.806 -9.228,21.198 -33.134,55.96 -51.785,51.687 -21.325,-4.885 -2.33,-47.25 -6.987,-64.35 -26.222,-96.266 71.671,-84.569 71.874,-84.143"
           style="fill:#c98a60;fill-opacity:1;fill-rule:evenodd;stroke:none"
           id="path113019"
           inkscape:connector-curvature="0" /><path
           d="m 265.197,127.341 c -19.838,3.899 -37.698,10.361 -53.604,19.055 l -10.226,38.332 c -4.972,24.175 -9.945,48.349 -14.919,72.525 10.09,31.658 20.179,63.318 30.266,94.976 24.354,17.164 48.708,34.325 73.06,51.488 22.265,7.075 44.531,14.148 66.795,21.222 5.03,7.257 9.36,29.124 14.389,36.38 2.393,24.196 6.507,32.344 15.879,46.768 18.509,-10.64 23.258,-34.687 23.657,-62.969 42.285,-21.104 50.483,-39.174 62.048,-81.209 5.157,-14.969 -5.523,-23.625 -14.786,-25.57 -14.366,-2.057 -27.565,-1.223 -37.521,7.628 -27.477,-7.159 -39.853,17.193 -44.356,41.92 -1.208,-29.89 6.385,-46.405 38.096,-59.315 19.249,-3.131 43.892,1.567 57.75,-9.393 7.504,-9.786 10.586,-22.223 11.13,-36.181 -11.118,6.707 -22.207,13.458 -38.962,12.176 -15.409,-23.67 -38.514,-39.65 -65.057,-52.185 -33.042,-3.707 -39.394,15.631 -50.794,30.615 -6.84,-44.646 0.581,-89.642 -20.524,-133.939 7.573,2.285 15.269,4.092 23.308,4.522 10.807,9.074 22.827,12.577 35.956,10.984 9.279,4.871 21.156,12.36 31.485,10.611 12.201,-2.069 26.65,-9.642 24.581,-20.117 -23.502,-7.183 -42.481,-2.011 -71.026,-10.323 4.671,-5.329 6.234,-10.471 3.479,-15.34 -3.616,-8.174 -36.842,-5.496 -75.862,-2.182 -5.102,0.942 -13.14,4.927 -14.242,9.521"
           style="fill:#8a471a;fill-opacity:1;fill-rule:evenodd;stroke:none"
           id="path113021"
           inkscape:connector-curvature="0" /><path
           d="m 201.367,184.728 c -8.434,117.876 27.232,188.78 109.936,207.346 32.67,7.334 55.191,20.67 59.655,69.245 C 349.466,429.831 320.462,417.352 292.517,410.86 157.105,379.404 173.067,254.406 201.367,184.728"
           style="fill:#693918;fill-opacity:1;fill-rule:evenodd;stroke:none"
           id="path113023"
           inkscape:connector-curvature="0" /><path
           d="m 472.772,363.211 c -7.282,3.455 -14.846,3.704 -23.055,-3.516 -6.611,4.707 -14.875,9.748 -19.309,3.13 -4.215,-6.287 3.456,-11.172 14.089,-12.87 -2.97,-6.481 -1.066,-10.737 6.636,-12.347 15.203,0.099 27.112,10.672 21.639,25.603"
           style="fill:#693918;fill-opacity:1;fill-rule:evenodd;stroke:none"
           id="path113025"
           inkscape:connector-curvature="0" /><path
           d="m 457.289,357.261 c 2.176,1.478 3.636,-7.48 7.047,-9.395 1.943,-1.09 7.45,3.814 6.435,1.826 -3.506,-6.871 -7.711,-6.544 -9.394,-5.429 -1.862,1.231 -7.246,5.356 -4.088,12.998"
           style="fill:#592d0f;fill-opacity:1;fill-rule:evenodd;stroke:none"
           id="path113027"
           inkscape:connector-curvature="0" /><path
           d="m 431.338,379.518 c 2.58,0.386 4.376,29.439 -14.234,30.472 -10.33,0.572 -16.129,-10.305 -13.043,-19.945 4.781,-14.944 10.768,-13.009 27.277,-10.527"
           style="fill:#9c5a2e;fill-opacity:1;fill-rule:evenodd;stroke:none"
           id="path113029"
           inkscape:connector-curvature="0" /><path
           d="m 411.658,402.444 c 3.992,3.352 9.945,2.833 13.296,-1.157 3.352,-3.99 5.878,-12.901 1.886,-16.252 -3.988,-3.352 -12.986,0.123 -16.338,4.114 -3.352,3.99 -2.835,9.943 1.156,13.295"
           style="fill:#000000;fill-opacity:1;fill-rule:evenodd;stroke:none"
           id="path113031"
           inkscape:connector-curvature="0" /><path
           d="m 417.771,402.307 c 3.458,0 6.261,-2.804 6.261,-6.262 0,-3.459 -2.803,0 -6.261,0 -3.458,0 -6.26,-3.459 -6.26,0 0,3.458 2.802,6.262 6.26,6.262"
           style="fill:#4d4d4d;fill-opacity:1;fill-rule:evenodd;stroke:none"
           id="path113033"
           inkscape:connector-curvature="0" /><path
           d="m 414.649,454.664 c 5.712,16.985 14.925,31.72 27.134,44.53 6.483,-18.188 7.09,-36.201 -1.738,-53.924 -9.467,1.35 -18.02,4.333 -25.396,9.394"
           style="fill:#8a471a;fill-opacity:1;fill-rule:evenodd;stroke:none"
           id="path113035"
           inkscape:connector-curvature="0" /><path
           d="m 217.764,192.169 c -10.55,31.655 -1.338,76.185 4.303,91.626 12.347,33.788 39.353,80.393 76.063,90.433 11.814,3.229 41.489,-27.022 42.621,-42.204 2.718,-36.408 31.88,-37.667 26.489,-51.022 -9.383,-23.251 -61.87,7.327 -76.765,22.494 -21.003,-42.695 34.671,-101.27 6.141,-113.415 -21.216,-9.033 -34.423,-34.316 -57.631,-28.755 -8.115,1.943 -18.9,23.881 -21.221,30.843"
           style="fill:#9c5a2e;fill-opacity:1;fill-rule:evenodd;stroke:none"
           id="path113037"
           inkscape:connector-curvature="0" /></g></g></g></svg>